<svg id="visual" viewBox="0 0 900 900" width="900" height="900" xmlns="http://www.w3.org/2000/svg" xmlns:xlink="http://www.w3.org/1999/xlink" version="1.1"><rect x="0" y="0" width="900" height="900" fill="#001122"></rect><path d="M819 900L801.7 878.5C784.3 857 749.7 814 736.8 771.2C724 728.3 733 685.7 740.3 642.8C747.7 600 753.3 557 736.5 514.2C719.7 471.3 680.3 428.7 679 385.8C677.7 343 714.3 300 730 257.2C745.7 214.3 740.3 171.7 716.5 128.8C692.7 86 650.3 43 629.2 21.5L608 0L900 0L900 21.5C900 43 900 86 900 128.8C900 171.7 900 214.3 900 257.2C900 300 900 343 900 385.8C900 428.7 900 471.3 900 514.2C900 557 900 600 900 642.8C900 685.7 900 728.3 900 771.2C900 814 900 857 900 878.5L900 900Z" fill="#715DF2" stroke-linecap="round" stroke-linejoin="miter"></path></svg>