<svg id="visual" viewBox="0 0 900 900" width="900" height="900" xmlns="http://www.w3.org/2000/svg" xmlns:xlink="http://www.w3.org/1999/xlink" version="1.1"><rect x="0" y="0" width="900" height="900" fill="#FFFFFF"></rect><path d="M576 0L528.3 21.5C480.7 43 385.3 86 335.3 128.8C285.3 171.7 280.7 214.3 282.8 257.2C285 300 294 343 324.5 385.8C355 428.7 407 471.3 377.2 514.2C347.3 557 235.7 600 234.8 642.8C234 685.7 344 728.3 397.7 771.2C451.3 814 448.7 857 447.3 878.5L446 900L0 900L0 878.5C0 857 0 814 0 771.2C0 728.3 0 685.7 0 642.8C0 600 0 557 0 514.2C0 471.3 0 428.7 0 385.8C0 343 0 300 0 257.2C0 214.3 0 171.7 0 128.8C0 86 0 43 0 21.5L0 0Z" fill="#715DF2" stroke-linecap="round" stroke-linejoin="miter"></path></svg>