<svg id="visual" viewBox="0 0 900 900" width="900" height="900" xmlns="http://www.w3.org/2000/svg" xmlns:xlink="http://www.w3.org/1999/xlink" version="1.1"><rect x="0" y="0" width="900" height="900" fill="#FFFFFF"></rect><path d="M423 900L436.2 878.5C449.3 857 475.7 814 490.5 771.2C505.3 728.3 508.7 685.7 499.8 642.8C491 600 470 557 462.8 514.2C455.7 471.3 462.3 428.7 474.2 385.8C486 343 503 300 502.2 257.2C501.3 214.3 482.7 171.7 457.8 128.8C433 86 402 43 386.5 21.5L371 0L900 0L900 21.5C900 43 900 86 900 128.8C900 171.7 900 214.3 900 257.2C900 300 900 343 900 385.8C900 428.7 900 471.3 900 514.2C900 557 900 600 900 642.8C900 685.7 900 728.3 900 771.2C900 814 900 857 900 878.5L900 900Z" fill="#d0dbd9"></path><path d="M482 900L472.2 878.5C462.3 857 442.7 814 459.2 771.2C475.7 728.3 528.3 685.7 546.5 642.8C564.7 600 548.3 557 552.8 514.2C557.3 471.3 582.7 428.7 580.3 385.8C578 343 548 300 545 257.2C542 214.3 566 171.7 579.5 128.8C593 86 596 43 597.5 21.5L599 0L900 0L900 21.5C900 43 900 86 900 128.8C900 171.7 900 214.3 900 257.2C900 300 900 343 900 385.8C900 428.7 900 471.3 900 514.2C900 557 900 600 900 642.8C900 685.7 900 728.3 900 771.2C900 814 900 857 900 878.5L900 900Z" fill="#a6cac2"></path><path d="M583 900L600 878.5C617 857 651 814 666 771.2C681 728.3 677 685.7 670.2 642.8C663.3 600 653.7 557 653.8 514.2C654 471.3 664 428.7 653 385.8C642 343 610 300 612.7 257.2C615.3 214.3 652.7 171.7 669.3 128.8C686 86 682 43 680 21.5L678 0L900 0L900 21.5C900 43 900 86 900 128.8C900 171.7 900 214.3 900 257.2C900 300 900 343 900 385.8C900 428.7 900 471.3 900 514.2C900 557 900 600 900 642.8C900 685.7 900 728.3 900 771.2C900 814 900 857 900 878.5L900 900Z" fill="#7bb8a9"></path><path d="M753 900L754.8 878.5C756.7 857 760.3 814 757.3 771.2C754.3 728.3 744.7 685.7 725.8 642.8C707 600 679 557 660.2 514.2C641.3 471.3 631.7 428.7 640.8 385.8C650 343 678 300 688.5 257.2C699 214.3 692 171.7 697 128.8C702 86 719 43 727.5 21.5L736 0L900 0L900 21.5C900 43 900 86 900 128.8C900 171.7 900 214.3 900 257.2C900 300 900 343 900 385.8C900 428.7 900 471.3 900 514.2C900 557 900 600 900 642.8C900 685.7 900 728.3 900 771.2C900 814 900 857 900 878.5L900 900Z" fill="#4da68f"></path><path d="M794 900L788 878.5C782 857 770 814 765.3 771.2C760.7 728.3 763.3 685.7 775.3 642.8C787.3 600 808.7 557 810.8 514.2C813 471.3 796 428.7 785.8 385.8C775.7 343 772.3 300 762.8 257.2C753.3 214.3 737.7 171.7 736.2 128.8C734.7 86 747.3 43 753.7 21.5L760 0L900 0L900 21.5C900 43 900 86 900 128.8C900 171.7 900 214.3 900 257.2C900 300 900 343 900 385.8C900 428.7 900 471.3 900 514.2C900 557 900 600 900 642.8C900 685.7 900 728.3 900 771.2C900 814 900 857 900 878.5L900 900Z" fill="#009473"></path></svg>