<svg id="visual" viewBox="0 0 900 900" width="900" height="900" xmlns="http://www.w3.org/2000/svg" xmlns:xlink="http://www.w3.org/1999/xlink" version="1.1"><rect x="0" y="0" width="900" height="900" fill="#009473"></rect><g transform="translate(-21.006781755460082 -31.88320402699304)"><path d="M97.1 -218.6C112.8 -159 103.6 -106.8 181.6 -71.6C259.6 -36.3 424.8 -18.2 463.8 22.5C502.7 63.2 415.5 126.3 420.3 305C425.1 483.6 521.9 777.6 467.2 760.9C412.5 744.1 206.2 416.6 7 404.5C-192.3 392.5 -384.7 695.9 -384.7 681.1C-384.7 666.3 -192.3 333.1 -107.3 166.6C-22.3 0 -44.7 0 -111.9 -38.8C-179.2 -77.7 -291.4 -155.3 -364.9 -302C-438.4 -448.6 -473.2 -664.3 -405.9 -694.1C-338.7 -723.9 -169.3 -568 -64.3 -456.5C40.7 -345.1 81.3 -278.2 97.1 -218.6" fill="none" stroke="#FFFFFF" stroke-width="6"></path></g></svg>