<svg id="visual" viewBox="0 0 900 900" width="900" height="900" xmlns="http://www.w3.org/2000/svg" xmlns:xlink="http://www.w3.org/1999/xlink" version="1.1"><rect x="0" y="0" width="900" height="900" fill="#001122"></rect><path d="M197 0L197.8 21.5C198.7 43 200.3 86 216.7 128.8C233 171.7 264 214.3 262 257.2C260 300 225 343 200.3 385.8C175.7 428.7 161.3 471.3 152.8 514.2C144.3 557 141.7 600 162 642.8C182.3 685.7 225.7 728.3 222.5 771.2C219.3 814 169.7 857 144.8 878.5L120 900L0 900L0 878.5C0 857 0 814 0 771.2C0 728.3 0 685.7 0 642.8C0 600 0 557 0 514.2C0 471.3 0 428.7 0 385.8C0 343 0 300 0 257.2C0 214.3 0 171.7 0 128.8C0 86 0 43 0 21.5L0 0Z" fill="#009473" stroke-linecap="round" stroke-linejoin="miter"></path></svg>