<svg id="visual" viewBox="0 0 900 900" width="900" height="900" xmlns="http://www.w3.org/2000/svg" xmlns:xlink="http://www.w3.org/1999/xlink" version="1.1"><rect x="0" y="0" width="900" height="900" fill="#001122"></rect><path d="M432 900L433.5 878.5C435 857 438 814 450.8 771.2C463.7 728.3 486.3 685.7 465.5 642.8C444.7 600 380.3 557 384.7 514.2C389 471.3 462 428.7 467.8 385.8C473.7 343 412.3 300 385.2 257.2C358 214.3 365 171.7 382.7 128.8C400.3 86 428.7 43 442.8 21.5L457 0L900 0L900 21.5C900 43 900 86 900 128.8C900 171.7 900 214.3 900 257.2C900 300 900 343 900 385.8C900 428.7 900 471.3 900 514.2C900 557 900 600 900 642.8C900 685.7 900 728.3 900 771.2C900 814 900 857 900 878.5L900 900Z" fill="#001122"></path><path d="M527 900L510.3 878.5C493.7 857 460.3 814 460.8 771.2C461.3 728.3 495.7 685.7 500.3 642.8C505 600 480 557 478.5 514.2C477 471.3 499 428.7 512.5 385.8C526 343 531 300 520.2 257.2C509.3 214.3 482.7 171.7 462.2 128.8C441.7 86 427.3 43 420.2 21.5L413 0L900 0L900 21.5C900 43 900 86 900 128.8C900 171.7 900 214.3 900 257.2C900 300 900 343 900 385.8C900 428.7 900 471.3 900 514.2C900 557 900 600 900 642.8C900 685.7 900 728.3 900 771.2C900 814 900 857 900 878.5L900 900Z" fill="#00255e"></path><path d="M567 900L583.8 878.5C600.7 857 634.3 814 653.7 771.2C673 728.3 678 685.7 660.5 642.8C643 600 603 557 600.5 514.2C598 471.3 633 428.7 638.5 385.8C644 343 620 300 595.8 257.2C571.7 214.3 547.3 171.7 547.5 128.8C547.7 86 572.3 43 584.7 21.5L597 0L900 0L900 21.5C900 43 900 86 900 128.8C900 171.7 900 214.3 900 257.2C900 300 900 343 900 385.8C900 428.7 900 471.3 900 514.2C900 557 900 600 900 642.8C900 685.7 900 728.3 900 771.2C900 814 900 857 900 878.5L900 900Z" fill="#002f99"></path><path d="M664 900L670.3 878.5C676.7 857 689.3 814 705.5 771.2C721.7 728.3 741.3 685.7 730.8 642.8C720.3 600 679.7 557 656.2 514.2C632.7 471.3 626.3 428.7 623.5 385.8C620.7 343 621.3 300 643 257.2C664.7 214.3 707.3 171.7 723.8 128.8C740.3 86 730.7 43 725.8 21.5L721 0L900 0L900 21.5C900 43 900 86 900 128.8C900 171.7 900 214.3 900 257.2C900 300 900 343 900 385.8C900 428.7 900 471.3 900 514.2C900 557 900 600 900 642.8C900 685.7 900 728.3 900 771.2C900 814 900 857 900 878.5L900 900Z" fill="#2b2ccf"></path><path d="M765 900L766.3 878.5C767.7 857 770.3 814 776.3 771.2C782.3 728.3 791.7 685.7 790.2 642.8C788.7 600 776.3 557 774.3 514.2C772.3 471.3 780.7 428.7 775.3 385.8C770 343 751 300 759.5 257.2C768 214.3 804 171.7 804.7 128.8C805.3 86 770.7 43 753.3 21.5L736 0L900 0L900 21.5C900 43 900 86 900 128.8C900 171.7 900 214.3 900 257.2C900 300 900 343 900 385.8C900 428.7 900 471.3 900 514.2C900 557 900 600 900 642.8C900 685.7 900 728.3 900 771.2C900 814 900 857 900 878.5L900 900Z" fill="#6600ff"></path></svg>