<svg id="visual" viewBox="0 0 900 900" width="900" height="900" xmlns="http://www.w3.org/2000/svg" xmlns:xlink="http://www.w3.org/1999/xlink" version="1.1"><rect x="0" y="0" width="900" height="900" fill="#6600FF"></rect><g transform="translate(460.26771130255105 417.2903300122821)"><path d="M90.8 -180.3C96.8 -153.7 66.7 -87.4 87.4 -50.7C108 -14.1 179.5 -7 215.1 20.6C250.8 48.2 250.5 96.3 225.4 125.2C200.2 154.1 150.1 163.6 108.4 193.7C66.7 223.8 33.3 274.4 -5.9 284.6C-45.2 294.9 -90.3 264.8 -125.8 231.1C-161.3 197.5 -187.2 160.2 -203.9 121.1C-220.7 82 -228.3 41 -241.6 -7.6C-254.8 -56.2 -273.5 -112.5 -257.7 -153.2C-241.9 -193.9 -191.4 -219.1 -142.7 -221.1C-94 -223.1 -47 -202.1 -2.3 -198C42.3 -194 84.7 -207 90.8 -180.3" fill="none" stroke="#715DF2" stroke-width="6"></path></g></svg>