<svg id="visual" viewBox="0 0 900 900" width="900" height="900" xmlns="http://www.w3.org/2000/svg" xmlns:xlink="http://www.w3.org/1999/xlink" version="1.1"><rect x="0" y="0" width="900" height="900" fill="#6600FF"></rect><path d="M390 900L385.7 878.5C381.3 857 372.7 814 386.8 771.2C401 728.3 438 685.7 463.5 642.8C489 600 503 557 513.3 514.2C523.7 471.3 530.3 428.7 530.7 385.8C531 343 525 300 510.7 257.2C496.3 214.3 473.7 171.7 437.5 128.8C401.3 86 351.7 43 326.8 21.5L302 0L900 0L900 21.5C900 43 900 86 900 128.8C900 171.7 900 214.3 900 257.2C900 300 900 343 900 385.8C900 428.7 900 471.3 900 514.2C900 557 900 600 900 642.8C900 685.7 900 728.3 900 771.2C900 814 900 857 900 878.5L900 900Z" fill="#715df2"></path><path d="M564 900L560.2 878.5C556.3 857 548.7 814 550 771.2C551.3 728.3 561.7 685.7 541.3 642.8C521 600 470 557 470.3 514.2C470.7 471.3 522.3 428.7 527.8 385.8C533.3 343 492.7 300 471.5 257.2C450.3 214.3 448.7 171.7 442.7 128.8C436.7 86 426.3 43 421.2 21.5L416 0L900 0L900 21.5C900 43 900 86 900 128.8C900 171.7 900 214.3 900 257.2C900 300 900 343 900 385.8C900 428.7 900 471.3 900 514.2C900 557 900 600 900 642.8C900 685.7 900 728.3 900 771.2C900 814 900 857 900 878.5L900 900Z" fill="#b544d7"></path><path d="M583 900L586.8 878.5C590.7 857 598.3 814 603 771.2C607.7 728.3 609.3 685.7 599.7 642.8C590 600 569 557 582.2 514.2C595.3 471.3 642.7 428.7 642.8 385.8C643 343 596 300 595.5 257.2C595 214.3 641 171.7 657.7 128.8C674.3 86 661.7 43 655.3 21.5L649 0L900 0L900 21.5C900 43 900 86 900 128.8C900 171.7 900 214.3 900 257.2C900 300 900 343 900 385.8C900 428.7 900 471.3 900 514.2C900 557 900 600 900 642.8C900 685.7 900 728.3 900 771.2C900 814 900 857 900 878.5L900 900Z" fill="#de21b4"></path><path d="M758 900L747.2 878.5C736.3 857 714.7 814 711.7 771.2C708.7 728.3 724.3 685.7 721 642.8C717.7 600 695.3 557 693.7 514.2C692 471.3 711 428.7 702.8 385.8C694.7 343 659.3 300 658.7 257.2C658 214.3 692 171.7 703.3 128.8C714.7 86 703.3 43 697.7 21.5L692 0L900 0L900 21.5C900 43 900 86 900 128.8C900 171.7 900 214.3 900 257.2C900 300 900 343 900 385.8C900 428.7 900 471.3 900 514.2C900 557 900 600 900 642.8C900 685.7 900 728.3 900 771.2C900 814 900 857 900 878.5L900 900Z" fill="#f6008d"></path><path d="M729 900L741.3 878.5C753.7 857 778.3 814 794 771.2C809.7 728.3 816.3 685.7 809.7 642.8C803 600 783 557 782 514.2C781 471.3 799 428.7 804.8 385.8C810.7 343 804.3 300 791.3 257.2C778.3 214.3 758.7 171.7 763.3 128.8C768 86 797 43 811.5 21.5L826 0L900 0L900 21.5C900 43 900 86 900 128.8C900 171.7 900 214.3 900 257.2C900 300 900 343 900 385.8C900 428.7 900 471.3 900 514.2C900 557 900 600 900 642.8C900 685.7 900 728.3 900 771.2C900 814 900 857 900 878.5L900 900Z" fill="#ff0066"></path></svg>