<svg id="visual" viewBox="0 0 900 900" width="900" height="900" xmlns="http://www.w3.org/2000/svg" xmlns:xlink="http://www.w3.org/1999/xlink" version="1.1"><rect x="0" y="0" width="900" height="900" fill="#FF0066"></rect><g transform="translate(493.1839204374254 381.7344143288032)"><path d="M100.2 -157.1C141.8 -149.6 195.6 -146.8 209.1 -121.4C222.5 -96 195.6 -48 196.5 0.5C197.4 49 226 98 221.8 139.4C217.6 180.8 180.5 214.7 138.1 246.4C95.7 278.2 47.8 307.8 -2.5 312.2C-52.8 316.5 -105.7 295.5 -135 256.2C-164.3 216.9 -170 159.2 -199.5 113.4C-228.9 67.7 -281.9 33.8 -300.7 -10.8C-319.5 -55.5 -303.9 -111 -262.4 -135.8C-220.9 -160.7 -153.5 -154.8 -105.4 -158.6C-57.3 -162.3 -28.7 -175.7 0.3 -176.2C29.3 -176.8 58.7 -164.6 100.2 -157.1" fill="none" stroke="#BB004B" stroke-width="6"></path></g></svg>