<svg id="visual" viewBox="0 0 900 600" width="900" height="600" xmlns="http://www.w3.org/2000/svg" xmlns:xlink="http://www.w3.org/1999/xlink" version="1.1"><rect x="0" y="0" width="900" height="600" fill="#001220"></rect><path d="M0 256L9.3 274.5C18.7 293 37.3 330 56.2 340.3C75 350.7 94 334.3 112.8 334.2C131.7 334 150.3 350 169 352.2C187.7 354.3 206.3 342.7 225 332.7C243.7 322.7 262.3 314.3 281.2 307.8C300 301.3 319 296.7 337.8 303.8C356.7 311 375.3 330 394 338.5C412.7 347 431.3 345 450 330.2C468.7 315.3 487.3 287.7 506.2 277.2C525 266.7 544 273.3 562.8 282.3C581.7 291.3 600.3 302.7 619 307.3C637.7 312 656.3 310 675 312.5C693.7 315 712.3 322 731.2 329.5C750 337 769 345 787.8 343.8C806.7 342.7 825.3 332.3 844 318.3C862.7 304.3 881.3 286.7 890.7 277.8L900 269L900 601L890.7 601C881.3 601 862.7 601 844 601C825.3 601 806.7 601 787.8 601C769 601 750 601 731.2 601C712.3 601 693.7 601 675 601C656.3 601 637.7 601 619 601C600.3 601 581.7 601 562.8 601C544 601 525 601 506.2 601C487.3 601 468.7 601 450 601C431.3 601 412.7 601 394 601C375.3 601 356.7 601 337.8 601C319 601 300 601 281.2 601C262.3 601 243.7 601 225 601C206.3 601 187.7 601 169 601C150.3 601 131.7 601 112.8 601C94 601 75 601 56.2 601C37.3 601 18.7 601 9.3 601L0 601Z" fill="#fa7268"></path><path d="M0 364L9.3 365.2C18.7 366.3 37.3 368.7 56.2 357.3C75 346 94 321 112.8 309C131.7 297 150.3 298 169 295.2C187.7 292.3 206.3 285.7 225 297.7C243.7 309.7 262.3 340.3 281.2 350.2C300 360 319 349 337.8 347.5C356.7 346 375.3 354 394 349.3C412.7 344.7 431.3 327.3 450 329C468.7 330.7 487.3 351.3 506.2 348.3C525 345.3 544 318.7 562.8 309C581.7 299.3 600.3 306.7 619 317C637.7 327.3 656.3 340.7 675 352.8C693.7 365 712.3 376 731.2 379.7C750 383.3 769 379.7 787.8 371.7C806.7 363.7 825.3 351.3 844 349.2C862.7 347 881.3 355 890.7 359L900 363L900 601L890.7 601C881.3 601 862.7 601 844 601C825.3 601 806.7 601 787.8 601C769 601 750 601 731.2 601C712.3 601 693.7 601 675 601C656.3 601 637.7 601 619 601C600.3 601 581.7 601 562.8 601C544 601 525 601 506.2 601C487.3 601 468.7 601 450 601C431.3 601 412.7 601 394 601C375.3 601 356.7 601 337.8 601C319 601 300 601 281.2 601C262.3 601 243.7 601 225 601C206.3 601 187.7 601 169 601C150.3 601 131.7 601 112.8 601C94 601 75 601 56.2 601C37.3 601 18.7 601 9.3 601L0 601Z" fill="#f56967"></path><path d="M0 328L9.3 329.8C18.7 331.7 37.3 335.3 56.2 339.5C75 343.7 94 348.3 112.8 358.5C131.7 368.7 150.3 384.3 169 383.8C187.7 383.3 206.3 366.7 225 355.3C243.7 344 262.3 338 281.2 348.5C300 359 319 386 337.8 399.7C356.7 413.3 375.3 413.7 394 399.7C412.7 385.7 431.3 357.3 450 351.8C468.7 346.3 487.3 363.7 506.2 377C525 390.3 544 399.7 562.8 404C581.7 408.3 600.3 407.7 619 396.2C637.7 384.7 656.3 362.3 675 362.2C693.7 362 712.3 384 731.2 385.5C750 387 769 368 787.8 359.7C806.7 351.3 825.3 353.7 844 365.3C862.7 377 881.3 398 890.7 408.5L900 419L900 601L890.7 601C881.3 601 862.7 601 844 601C825.3 601 806.7 601 787.8 601C769 601 750 601 731.2 601C712.3 601 693.7 601 675 601C656.3 601 637.7 601 619 601C600.3 601 581.7 601 562.8 601C544 601 525 601 506.2 601C487.3 601 468.7 601 450 601C431.3 601 412.7 601 394 601C375.3 601 356.7 601 337.8 601C319 601 300 601 281.2 601C262.3 601 243.7 601 225 601C206.3 601 187.7 601 169 601C150.3 601 131.7 601 112.8 601C94 601 75 601 56.2 601C37.3 601 18.7 601 9.3 601L0 601Z" fill="#ef5f67"></path><path d="M0 356L9.3 366.5C18.7 377 37.3 398 56.2 406C75 414 94 409 112.8 403.7C131.7 398.3 150.3 392.7 169 391.2C187.7 389.7 206.3 392.3 225 387C243.7 381.7 262.3 368.3 281.2 369.8C300 371.3 319 387.7 337.8 401.3C356.7 415 375.3 426 394 419.5C412.7 413 431.3 389 450 381C468.7 373 487.3 381 506.2 379.7C525 378.3 544 367.7 562.8 362.8C581.7 358 600.3 359 619 369.7C637.7 380.3 656.3 400.7 675 412.3C693.7 424 712.3 427 731.2 424.5C750 422 769 414 787.8 409.3C806.7 404.7 825.3 403.3 844 406.5C862.7 409.7 881.3 417.3 890.7 421.2L900 425L900 601L890.7 601C881.3 601 862.7 601 844 601C825.3 601 806.7 601 787.8 601C769 601 750 601 731.2 601C712.3 601 693.7 601 675 601C656.3 601 637.7 601 619 601C600.3 601 581.7 601 562.8 601C544 601 525 601 506.2 601C487.3 601 468.7 601 450 601C431.3 601 412.7 601 394 601C375.3 601 356.7 601 337.8 601C319 601 300 601 281.2 601C262.3 601 243.7 601 225 601C206.3 601 187.7 601 169 601C150.3 601 131.7 601 112.8 601C94 601 75 601 56.2 601C37.3 601 18.7 601 9.3 601L0 601Z" fill="#e95667"></path><path d="M0 402L9.3 411.3C18.7 420.7 37.3 439.3 56.2 440C75 440.7 94 423.3 112.8 413C131.7 402.7 150.3 399.3 169 410.3C187.7 421.3 206.3 446.7 225 459.3C243.7 472 262.3 472 281.2 461.8C300 451.7 319 431.3 337.8 421.2C356.7 411 375.3 411 394 417.5C412.7 424 431.3 437 450 442.5C468.7 448 487.3 446 506.2 441.7C525 437.3 544 430.7 562.8 431.5C581.7 432.3 600.3 440.7 619 448.7C637.7 456.7 656.3 464.3 675 468C693.7 471.7 712.3 471.3 731.2 458.8C750 446.3 769 421.7 787.8 418.8C806.7 416 825.3 435 844 435.8C862.7 436.7 881.3 419.3 890.7 410.7L900 402L900 601L890.7 601C881.3 601 862.7 601 844 601C825.3 601 806.7 601 787.8 601C769 601 750 601 731.2 601C712.3 601 693.7 601 675 601C656.3 601 637.7 601 619 601C600.3 601 581.7 601 562.8 601C544 601 525 601 506.2 601C487.3 601 468.7 601 450 601C431.3 601 412.7 601 394 601C375.3 601 356.7 601 337.8 601C319 601 300 601 281.2 601C262.3 601 243.7 601 225 601C206.3 601 187.7 601 169 601C150.3 601 131.7 601 112.8 601C94 601 75 601 56.2 601C37.3 601 18.7 601 9.3 601L0 601Z" fill="#e34c67"></path><path d="M0 437L9.3 440.2C18.7 443.3 37.3 449.7 56.2 452.7C75 455.7 94 455.3 112.8 452.7C131.7 450 150.3 445 169 445C187.7 445 206.3 450 225 456.5C243.7 463 262.3 471 281.2 473.2C300 475.3 319 471.7 337.8 465.2C356.7 458.7 375.3 449.3 394 449.7C412.7 450 431.3 460 450 461C468.7 462 487.3 454 506.2 457.5C525 461 544 476 562.8 478C581.7 480 600.3 469 619 462.8C637.7 456.7 656.3 455.3 675 451.8C693.7 448.3 712.3 442.7 731.2 447.3C750 452 769 467 787.8 474.5C806.7 482 825.3 482 844 480.2C862.7 478.3 881.3 474.7 890.7 472.8L900 471L900 601L890.7 601C881.3 601 862.7 601 844 601C825.3 601 806.7 601 787.8 601C769 601 750 601 731.2 601C712.3 601 693.7 601 675 601C656.3 601 637.7 601 619 601C600.3 601 581.7 601 562.8 601C544 601 525 601 506.2 601C487.3 601 468.7 601 450 601C431.3 601 412.7 601 394 601C375.3 601 356.7 601 337.8 601C319 601 300 601 281.2 601C262.3 601 243.7 601 225 601C206.3 601 187.7 601 169 601C150.3 601 131.7 601 112.8 601C94 601 75 601 56.2 601C37.3 601 18.7 601 9.3 601L0 601Z" fill="#dc4267"></path><path d="M0 519L9.3 510.2C18.7 501.3 37.3 483.7 56.2 474.5C75 465.3 94 464.7 112.8 471.5C131.7 478.3 150.3 492.7 169 500C187.7 507.3 206.3 507.7 225 503.5C243.7 499.3 262.3 490.7 281.2 493.2C300 495.7 319 509.3 337.8 507C356.7 504.7 375.3 486.3 394 483.7C412.7 481 431.3 494 450 501C468.7 508 487.3 509 506.2 502.8C525 496.7 544 483.3 562.8 485.7C581.7 488 600.3 506 619 513.7C637.7 521.3 656.3 518.7 675 511.2C693.7 503.7 712.3 491.3 731.2 491.2C750 491 769 503 787.8 504.8C806.7 506.7 825.3 498.3 844 497.5C862.7 496.7 881.3 503.3 890.7 506.7L900 510L900 601L890.7 601C881.3 601 862.7 601 844 601C825.3 601 806.7 601 787.8 601C769 601 750 601 731.2 601C712.3 601 693.7 601 675 601C656.3 601 637.7 601 619 601C600.3 601 581.7 601 562.8 601C544 601 525 601 506.2 601C487.3 601 468.7 601 450 601C431.3 601 412.7 601 394 601C375.3 601 356.7 601 337.8 601C319 601 300 601 281.2 601C262.3 601 243.7 601 225 601C206.3 601 187.7 601 169 601C150.3 601 131.7 601 112.8 601C94 601 75 601 56.2 601C37.3 601 18.7 601 9.3 601L0 601Z" fill="#d53867"></path><path d="M0 535L9.3 537.3C18.7 539.7 37.3 544.3 56.2 541.3C75 538.3 94 527.7 112.8 523.7C131.7 519.7 150.3 522.3 169 520.7C187.7 519 206.3 513 225 511C243.7 509 262.3 511 281.2 510.3C300 509.7 319 506.3 337.8 512C356.7 517.7 375.3 532.3 394 539.2C412.7 546 431.3 545 450 542.2C468.7 539.3 487.3 534.7 506.2 531.5C525 528.3 544 526.7 562.8 526.5C581.7 526.3 600.3 527.7 619 528.3C637.7 529 656.3 529 675 525.3C693.7 521.7 712.3 514.3 731.2 516C750 517.7 769 528.3 787.8 533.3C806.7 538.3 825.3 537.7 844 532.2C862.7 526.7 881.3 516.3 890.7 511.2L900 506L900 601L890.7 601C881.3 601 862.7 601 844 601C825.3 601 806.7 601 787.8 601C769 601 750 601 731.2 601C712.3 601 693.7 601 675 601C656.3 601 637.7 601 619 601C600.3 601 581.7 601 562.8 601C544 601 525 601 506.2 601C487.3 601 468.7 601 450 601C431.3 601 412.7 601 394 601C375.3 601 356.7 601 337.8 601C319 601 300 601 281.2 601C262.3 601 243.7 601 225 601C206.3 601 187.7 601 169 601C150.3 601 131.7 601 112.8 601C94 601 75 601 56.2 601C37.3 601 18.7 601 9.3 601L0 601Z" fill="#ce2e68"></path><path d="M0 558L9.3 560.2C18.7 562.3 37.3 566.7 56.2 567.7C75 568.7 94 566.3 112.8 561.8C131.7 557.3 150.3 550.7 169 546.2C187.7 541.7 206.3 539.3 225 544.7C243.7 550 262.3 563 281.2 563.7C300 564.3 319 552.7 337.8 550.7C356.7 548.7 375.3 556.3 394 558.7C412.7 561 431.3 558 450 556.8C468.7 555.7 487.3 556.3 506.2 555.7C525 555 544 553 562.8 555.8C581.7 558.7 600.3 566.3 619 568C637.7 569.7 656.3 565.3 675 565C693.7 564.7 712.3 568.3 731.2 565C750 561.7 769 551.3 787.8 545.7C806.7 540 825.3 539 844 541.2C862.7 543.3 881.3 548.7 890.7 551.3L900 554L900 601L890.7 601C881.3 601 862.7 601 844 601C825.3 601 806.7 601 787.8 601C769 601 750 601 731.2 601C712.3 601 693.7 601 675 601C656.3 601 637.7 601 619 601C600.3 601 581.7 601 562.8 601C544 601 525 601 506.2 601C487.3 601 468.7 601 450 601C431.3 601 412.7 601 394 601C375.3 601 356.7 601 337.8 601C319 601 300 601 281.2 601C262.3 601 243.7 601 225 601C206.3 601 187.7 601 169 601C150.3 601 131.7 601 112.8 601C94 601 75 601 56.2 601C37.3 601 18.7 601 9.3 601L0 601Z" fill="#c62368"></path></svg>