<svg id="visual" viewBox="0 0 900 600" width="900" height="600" xmlns="http://www.w3.org/2000/svg" xmlns:xlink="http://www.w3.org/1999/xlink" version="1.1"><rect x="0" y="0" width="900" height="600" fill="#001220"></rect><path d="M0 149L9.3 150.7C18.7 152.3 37.3 155.7 56.2 162.7C75 169.7 94 180.3 112.8 181.3C131.7 182.3 150.3 173.7 169 163.5C187.7 153.3 206.3 141.7 225 139.3C243.7 137 262.3 144 281.2 144.2C300 144.3 319 137.7 337.8 139.3C356.7 141 375.3 151 394 153.3C412.7 155.7 431.3 150.3 450 150.8C468.7 151.3 487.3 157.7 506.2 165C525 172.3 544 180.7 562.8 174.2C581.7 167.7 600.3 146.3 619 136.7C637.7 127 656.3 129 675 137.7C693.7 146.3 712.3 161.7 731.2 167.3C750 173 769 169 787.8 160.5C806.7 152 825.3 139 844 141.3C862.7 143.7 881.3 161.3 890.7 170.2L900 179L900 0L890.7 0C881.3 0 862.7 0 844 0C825.3 0 806.7 0 787.8 0C769 0 750 0 731.2 0C712.3 0 693.7 0 675 0C656.3 0 637.7 0 619 0C600.3 0 581.7 0 562.8 0C544 0 525 0 506.2 0C487.3 0 468.7 0 450 0C431.3 0 412.7 0 394 0C375.3 0 356.7 0 337.8 0C319 0 300 0 281.2 0C262.3 0 243.7 0 225 0C206.3 0 187.7 0 169 0C150.3 0 131.7 0 112.8 0C94 0 75 0 56.2 0C37.3 0 18.7 0 9.3 0L0 0Z" fill="#fa7268"></path><path d="M0 116L9.3 115.5C18.7 115 37.3 114 56.2 116.5C75 119 94 125 112.8 122.3C131.7 119.7 150.3 108.3 169 110.2C187.7 112 206.3 127 225 136.2C243.7 145.3 262.3 148.7 281.2 146.7C300 144.7 319 137.3 337.8 129.7C356.7 122 375.3 114 394 116.7C412.7 119.3 431.3 132.7 450 134.7C468.7 136.7 487.3 127.3 506.2 121.7C525 116 544 114 562.8 113C581.7 112 600.3 112 619 114.3C637.7 116.7 656.3 121.3 675 128.3C693.7 135.3 712.3 144.7 731.2 143.5C750 142.3 769 130.7 787.8 128.5C806.7 126.3 825.3 133.7 844 135.3C862.7 137 881.3 133 890.7 131L900 129L900 0L890.7 0C881.3 0 862.7 0 844 0C825.3 0 806.7 0 787.8 0C769 0 750 0 731.2 0C712.3 0 693.7 0 675 0C656.3 0 637.7 0 619 0C600.3 0 581.7 0 562.8 0C544 0 525 0 506.2 0C487.3 0 468.7 0 450 0C431.3 0 412.7 0 394 0C375.3 0 356.7 0 337.8 0C319 0 300 0 281.2 0C262.3 0 243.7 0 225 0C206.3 0 187.7 0 169 0C150.3 0 131.7 0 112.8 0C94 0 75 0 56.2 0C37.3 0 18.7 0 9.3 0L0 0Z" fill="#ef5f67"></path><path d="M0 128L9.3 121C18.7 114 37.3 100 56.2 94.2C75 88.3 94 90.7 112.8 88.8C131.7 87 150.3 81 169 80.5C187.7 80 206.3 85 225 90C243.7 95 262.3 100 281.2 99.2C300 98.3 319 91.7 337.8 86.5C356.7 81.3 375.3 77.7 394 75.3C412.7 73 431.3 72 450 78.7C468.7 85.3 487.3 99.7 506.2 109.3C525 119 544 124 562.8 117.8C581.7 111.7 600.3 94.3 619 91.2C637.7 88 656.3 99 675 102.2C693.7 105.3 712.3 100.7 731.2 100.7C750 100.7 769 105.3 787.8 110.7C806.7 116 825.3 122 844 119.7C862.7 117.3 881.3 106.7 890.7 101.3L900 96L900 0L890.7 0C881.3 0 862.7 0 844 0C825.3 0 806.7 0 787.8 0C769 0 750 0 731.2 0C712.3 0 693.7 0 675 0C656.3 0 637.7 0 619 0C600.3 0 581.7 0 562.8 0C544 0 525 0 506.2 0C487.3 0 468.7 0 450 0C431.3 0 412.7 0 394 0C375.3 0 356.7 0 337.8 0C319 0 300 0 281.2 0C262.3 0 243.7 0 225 0C206.3 0 187.7 0 169 0C150.3 0 131.7 0 112.8 0C94 0 75 0 56.2 0C37.3 0 18.7 0 9.3 0L0 0Z" fill="#e34c67"></path><path d="M0 90L9.3 85.2C18.7 80.3 37.3 70.7 56.2 69.2C75 67.7 94 74.3 112.8 77.8C131.7 81.3 150.3 81.7 169 76.2C187.7 70.7 206.3 59.3 225 56.8C243.7 54.3 262.3 60.7 281.2 66.8C300 73 319 79 337.8 79.7C356.7 80.3 375.3 75.7 394 76.5C412.7 77.3 431.3 83.7 450 87.5C468.7 91.3 487.3 92.7 506.2 91.2C525 89.7 544 85.3 562.8 82.5C581.7 79.7 600.3 78.3 619 73.2C637.7 68 656.3 59 675 56.7C693.7 54.3 712.3 58.7 731.2 65.7C750 72.7 769 82.3 787.8 81.3C806.7 80.3 825.3 68.7 844 68.7C862.7 68.7 881.3 80.3 890.7 86.2L900 92L900 0L890.7 0C881.3 0 862.7 0 844 0C825.3 0 806.7 0 787.8 0C769 0 750 0 731.2 0C712.3 0 693.7 0 675 0C656.3 0 637.7 0 619 0C600.3 0 581.7 0 562.8 0C544 0 525 0 506.2 0C487.3 0 468.7 0 450 0C431.3 0 412.7 0 394 0C375.3 0 356.7 0 337.8 0C319 0 300 0 281.2 0C262.3 0 243.7 0 225 0C206.3 0 187.7 0 169 0C150.3 0 131.7 0 112.8 0C94 0 75 0 56.2 0C37.3 0 18.7 0 9.3 0L0 0Z" fill="#d53867"></path><path d="M0 49L9.3 44.8C18.7 40.7 37.3 32.3 56.2 28C75 23.7 94 23.3 112.8 22.8C131.7 22.3 150.3 21.7 169 23.7C187.7 25.7 206.3 30.3 225 31.5C243.7 32.7 262.3 30.3 281.2 33.5C300 36.7 319 45.3 337.8 49.5C356.7 53.7 375.3 53.3 394 50.7C412.7 48 431.3 43 450 40C468.7 37 487.3 36 506.2 36.3C525 36.7 544 38.3 562.8 37C581.7 35.7 600.3 31.3 619 31.8C637.7 32.3 656.3 37.7 675 41C693.7 44.3 712.3 45.7 731.2 42.7C750 39.7 769 32.3 787.8 33.7C806.7 35 825.3 45 844 45.8C862.7 46.7 881.3 38.3 890.7 34.2L900 30L900 0L890.7 0C881.3 0 862.7 0 844 0C825.3 0 806.7 0 787.8 0C769 0 750 0 731.2 0C712.3 0 693.7 0 675 0C656.3 0 637.7 0 619 0C600.3 0 581.7 0 562.8 0C544 0 525 0 506.2 0C487.3 0 468.7 0 450 0C431.3 0 412.7 0 394 0C375.3 0 356.7 0 337.8 0C319 0 300 0 281.2 0C262.3 0 243.7 0 225 0C206.3 0 187.7 0 169 0C150.3 0 131.7 0 112.8 0C94 0 75 0 56.2 0C37.3 0 18.7 0 9.3 0L0 0Z" fill="#c62368"></path></svg>